<?xml version="1.0" standalone="no"?>
<!DOCTYPE svg PUBLIC "-//W3C//DTD SVG 20010904//EN"
 "http://www.w3.org/TR/2001/REC-SVG-20010904/DTD/svg10.dtd">
<svg version="1.0" xmlns="http://www.w3.org/2000/svg"
 width="230.000000pt" height="219.000000pt" viewBox="0 0 230.000000 219.000000"
 preserveAspectRatio="xMidYMid meet">

<g transform="translate(0.000000,219.000000) scale(0.100000,-0.100000)"
fill="#000000" stroke="none">
<path d="M1222 2029 c-65 -13 -82 -57 -82 -205 l0 -114 115 0 115 0 0 110 c0
176 -40 232 -148 209z"/>
<path d="M995 1666 c-310 -63 -461 -407 -300 -682 89 -152 239 -224 465 -224
98 0 120 3 148 20 46 28 68 82 53 132 -19 62 -45 72 -207 79 -126 5 -146 9
-180 30 -78 47 -114 111 -114 200 0 69 17 111 63 159 60 62 73 64 384 70 l283
5 27 28 c24 23 28 36 28 81 0 63 -19 91 -74 106 -51 14 -502 11 -576 -4z"/>
<path d="M1140 1220 l0 -200 79 0 c67 0 84 -4 115 -25 l36 -24 0 224 0 225
-115 0 -115 0 0 -200z"/>
<path d="M376 514 c-29 -28 10 -71 47 -52 20 10 22 39 5 56 -16 16 -33 15 -52
-4z"/>
<path d="M806 514 c-21 -20 -20 -27 3 -48 36 -33 83 18 49 52 -16 16 -33 15
-52 -4z"/>
<path d="M250 455 c0 -30 -2 -55 -3 -55 -2 0 -18 7 -36 16 -121 60 -217 -121
-115 -217 33 -31 102 -33 133 -5 19 17 21 17 21 3 0 -12 9 -17 30 -17 l30 0 0
165 0 165 -30 0 c-30 0 -30 -1 -30 -55z m-20 -105 c41 -41 10 -120 -48 -120
-33 0 -45 8 -61 38 -37 70 54 137 109 82z"/>
<path d="M1407 503 c-4 -3 -7 -78 -7 -165 l0 -158 30 0 30 0 0 165 0 165 -23
0 c-13 0 -27 -3 -30 -7z"/>
<path d="M940 455 c0 -14 -7 -28 -15 -31 -8 -4 -15 -17 -15 -30 0 -15 6 -24
15 -24 12 0 15 -15 15 -79 0 -93 11 -111 71 -111 35 0 39 3 39 25 0 20 -5 25
-25 25 -24 0 -25 2 -25 70 0 68 1 70 25 70 20 0 25 5 25 25 0 20 -5 25 -25 25
-21 0 -25 5 -25 30 0 27 -3 30 -30 30 -25 0 -30 -4 -30 -25z"/>
<path d="M2110 450 c0 -20 -5 -30 -15 -30 -9 0 -15 -9 -15 -25 0 -16 6 -25 15
-25 12 0 15 -15 15 -75 0 -91 17 -115 80 -115 36 0 40 3 40 24 0 19 -6 25 -27
28 -27 3 -28 5 -31 71 l-3 67 31 0 c25 0 30 4 30 24 0 19 -6 25 -27 28 -22 2
-29 9 -31 31 -3 23 -8 27 -33 27 -26 0 -29 -3 -29 -30z"/>
<path d="M544 416 c-84 -37 -83 -190 1 -230 43 -21 63 -20 103 4 l32 20 0 -28
c0 -43 -26 -72 -65 -72 -18 0 -40 7 -49 15 -17 17 -76 20 -76 4 0 -6 13 -24
29 -40 26 -26 36 -29 90 -29 53 0 65 4 93 29 l33 29 3 151 4 151 -30 0 c-17 0
-32 -5 -34 -11 -2 -6 -14 -5 -33 5 -36 19 -60 19 -101 2z m110 -61 c55 -55 8
-140 -67 -121 -25 6 -47 43 -47 76 0 48 79 79 114 45z"/>
<path d="M1151 418 c-86 -46 -91 -177 -9 -228 38 -24 89 -21 119 6 18 16 19
16 19 1 0 -12 9 -17 30 -17 l30 0 0 120 0 120 -30 0 c-21 0 -30 -5 -30 -17 0
-15 -1 -15 -19 1 -25 23 -80 30 -110 14z m104 -62 c27 -20 27 -92 0 -112 -47
-35 -105 -5 -105 54 0 62 57 93 105 58z"/>
<path d="M1573 410 c-88 -53 -79 -187 14 -227 49 -20 98 -9 137 30 l31 32 -29
3 c-16 2 -44 -4 -61 -14 -31 -17 -35 -17 -59 -1 -50 33 -34 46 62 49 l87 3 -3
40 c-7 86 -103 132 -179 85z m99 -47 c33 -30 23 -43 -37 -43 -59 0 -68 10 -38
42 20 22 51 23 75 1z"/>
<path d="M1898 416 c-16 -8 -28 -11 -28 -5 0 5 -16 9 -35 9 l-35 0 0 -120 0
-120 35 0 35 0 0 84 c0 76 2 86 22 100 30 21 44 20 68 -4 17 -17 20 -33 20
-100 l0 -80 30 0 30 0 0 85 c0 95 -12 130 -51 151 -35 18 -57 18 -91 0z"/>
<path d="M370 300 l0 -120 33 0 32 0 0 120 0 120 -32 0 -33 0 0 -120z"/>
<path d="M800 300 l0 -120 30 0 30 0 0 120 0 120 -30 0 -30 0 0 -120z"/>
</g>
</svg>
